<mxfile host="app.diagrams.net" modified="2023-07-20T07:19:25.542Z" agent="Mozilla/5.0 (Windows NT 10.0; Win64; x64) AppleWebKit/537.36 (KHTML, like Gecko) Chrome/115.0.0.0 Safari/537.36" etag="iUF0tJRUb3FZzBF3LE86" version="21.6.3" type="google">
  <diagram name="Page-1" id="jKKDfdFCe0p2eEt7YeTl">
    <mxGraphModel grid="1" page="1" gridSize="10" guides="1" tooltips="1" connect="1" arrows="1" fold="1" pageScale="1" pageWidth="850" pageHeight="1100" math="0" shadow="0">
      <root>
        <mxCell id="0" />
        <mxCell id="1" parent="0" />
        <mxCell id="Hru7kzp4jPPOl90ZvP8H-1" value="Bank Managment Application" style="text;strokeColor=none;align=center;fillColor=none;html=1;verticalAlign=middle;whiteSpace=wrap;rounded=0;" vertex="1" parent="1">
          <mxGeometry x="-40" y="50" width="260" as="geometry" />
        </mxCell>
        <mxCell id="Hru7kzp4jPPOl90ZvP8H-2" value="Bank" style="swimlane;fontStyle=1;align=center;verticalAlign=top;childLayout=stackLayout;horizontal=1;startSize=26;horizontalStack=0;resizeParent=1;resizeParentMax=0;resizeLast=0;collapsible=1;marginBottom=0;whiteSpace=wrap;html=1;" vertex="1" parent="1">
          <mxGeometry x="125" y="105" width="170" height="160" as="geometry" />
        </mxCell>
        <mxCell id="Hru7kzp4jPPOl90ZvP8H-3" value="-bankName : string" style="text;strokeColor=none;fillColor=none;align=left;verticalAlign=top;spacingLeft=4;spacingRight=4;overflow=hidden;rotatable=0;points=[[0,0.5],[1,0.5]];portConstraint=eastwest;whiteSpace=wrap;html=1;" vertex="1" parent="Hru7kzp4jPPOl90ZvP8H-2">
          <mxGeometry y="26" width="170" height="26" as="geometry" />
        </mxCell>
        <mxCell id="Hru7kzp4jPPOl90ZvP8H-4" value="" style="line;strokeWidth=1;fillColor=none;align=left;verticalAlign=middle;spacingTop=-1;spacingLeft=3;spacingRight=3;rotatable=0;labelPosition=right;points=[];portConstraint=eastwest;strokeColor=inherit;" vertex="1" parent="Hru7kzp4jPPOl90ZvP8H-2">
          <mxGeometry y="52" width="170" height="8" as="geometry" />
        </mxCell>
        <mxCell id="Hru7kzp4jPPOl90ZvP8H-5" value="+getBankName() : string&lt;br style=&quot;border-color: var(--border-color);&quot;&gt;+setBankName(string) : void&lt;br&gt;+addBranch()&lt;br&gt;+removeBranch()&lt;br&gt;+getBranch()&lt;br&gt;+getAllBranches()" style="text;strokeColor=none;fillColor=none;align=left;verticalAlign=top;spacingLeft=4;spacingRight=4;overflow=hidden;rotatable=0;points=[[0,0.5],[1,0.5]];portConstraint=eastwest;whiteSpace=wrap;html=1;" vertex="1" parent="Hru7kzp4jPPOl90ZvP8H-2">
          <mxGeometry y="60" width="170" height="100" as="geometry" />
        </mxCell>
        <mxCell id="Hru7kzp4jPPOl90ZvP8H-6" value="Branch" style="swimlane;fontStyle=1;align=center;verticalAlign=top;childLayout=stackLayout;horizontal=1;startSize=26;horizontalStack=0;resizeParent=1;resizeParentMax=0;resizeLast=0;collapsible=1;marginBottom=0;whiteSpace=wrap;html=1;" vertex="1" parent="1">
          <mxGeometry x="360" y="105" width="180" height="210" as="geometry" />
        </mxCell>
        <mxCell id="Hru7kzp4jPPOl90ZvP8H-7" value="-branchName : string" style="text;strokeColor=none;fillColor=none;align=left;verticalAlign=top;spacingLeft=4;spacingRight=4;overflow=hidden;rotatable=0;points=[[0,0.5],[1,0.5]];portConstraint=eastwest;whiteSpace=wrap;html=1;" vertex="1" parent="Hru7kzp4jPPOl90ZvP8H-6">
          <mxGeometry y="26" width="180" height="26" as="geometry" />
        </mxCell>
        <mxCell id="Hru7kzp4jPPOl90ZvP8H-30" value="" style="endArrow=diamondThin;endFill=1;endSize=24;html=1;rounded=0;entryX=1.006;entryY=0.962;entryDx=0;entryDy=0;entryPerimeter=0;" edge="1" parent="Hru7kzp4jPPOl90ZvP8H-6" target="Hru7kzp4jPPOl90ZvP8H-3">
          <mxGeometry width="160" relative="1" as="geometry">
            <mxPoint y="51" as="sourcePoint" />
            <mxPoint x="-70" y="50" as="targetPoint" />
          </mxGeometry>
        </mxCell>
        <mxCell id="Hru7kzp4jPPOl90ZvP8H-8" value="" style="line;strokeWidth=1;fillColor=none;align=left;verticalAlign=middle;spacingTop=-1;spacingLeft=3;spacingRight=3;rotatable=0;labelPosition=right;points=[];portConstraint=eastwest;strokeColor=inherit;" vertex="1" parent="Hru7kzp4jPPOl90ZvP8H-6">
          <mxGeometry y="52" width="180" height="8" as="geometry" />
        </mxCell>
        <mxCell id="Hru7kzp4jPPOl90ZvP8H-9" value="+getBranchName() : string&lt;br&gt;+setBranchName(string) : void&lt;br&gt;+addAccount()&lt;br&gt;+removeAccount()&lt;br&gt;+addLoan()&lt;br&gt;+removeLoan()&lt;br&gt;+addCustomer()&lt;br&gt;+removeCustomer()&lt;br&gt;+getCustomer()&lt;br&gt;+getAllCustomer()" style="text;strokeColor=none;fillColor=none;align=left;verticalAlign=top;spacingLeft=4;spacingRight=4;overflow=hidden;rotatable=0;points=[[0,0.5],[1,0.5]];portConstraint=eastwest;whiteSpace=wrap;html=1;" vertex="1" parent="Hru7kzp4jPPOl90ZvP8H-6">
          <mxGeometry y="60" width="180" height="150" as="geometry" />
        </mxCell>
        <mxCell id="Hru7kzp4jPPOl90ZvP8H-10" value="Loan" style="swimlane;fontStyle=1;align=center;verticalAlign=top;childLayout=stackLayout;horizontal=1;startSize=26;horizontalStack=0;resizeParent=1;resizeParentMax=0;resizeLast=0;collapsible=1;marginBottom=0;whiteSpace=wrap;html=1;" vertex="1" parent="1">
          <mxGeometry x="125" y="320" width="180" height="188" as="geometry" />
        </mxCell>
        <mxCell id="Hru7kzp4jPPOl90ZvP8H-11" value="-loanNo : int&lt;br&gt;-loanAmount : double&lt;br&gt;-loanType : string" style="text;strokeColor=none;fillColor=none;align=left;verticalAlign=top;spacingLeft=4;spacingRight=4;overflow=hidden;rotatable=0;points=[[0,0.5],[1,0.5]];portConstraint=eastwest;whiteSpace=wrap;html=1;" vertex="1" parent="Hru7kzp4jPPOl90ZvP8H-10">
          <mxGeometry y="26" width="180" height="54" as="geometry" />
        </mxCell>
        <mxCell id="Hru7kzp4jPPOl90ZvP8H-12" value="" style="line;strokeWidth=1;fillColor=none;align=left;verticalAlign=middle;spacingTop=-1;spacingLeft=3;spacingRight=3;rotatable=0;labelPosition=right;points=[];portConstraint=eastwest;strokeColor=inherit;" vertex="1" parent="Hru7kzp4jPPOl90ZvP8H-10">
          <mxGeometry y="80" width="180" height="8" as="geometry" />
        </mxCell>
        <mxCell id="Hru7kzp4jPPOl90ZvP8H-13" value="+getLoanNo() : int&lt;br&gt;+setLoanNo(int) : void&lt;br&gt;+getLoanAmount() : double&lt;br&gt;+setLoanAmount(double) : void&lt;br&gt;+getLoanType() : string&lt;br&gt;+setLoanType(string) : void" style="text;strokeColor=none;fillColor=none;align=left;verticalAlign=top;spacingLeft=4;spacingRight=4;overflow=hidden;rotatable=0;points=[[0,0.5],[1,0.5]];portConstraint=eastwest;whiteSpace=wrap;html=1;" vertex="1" parent="Hru7kzp4jPPOl90ZvP8H-10">
          <mxGeometry y="88" width="180" height="100" as="geometry" />
        </mxCell>
        <mxCell id="Hru7kzp4jPPOl90ZvP8H-14" value="Account" style="swimlane;fontStyle=1;align=center;verticalAlign=top;childLayout=stackLayout;horizontal=1;startSize=26;horizontalStack=0;resizeParent=1;resizeParentMax=0;resizeLast=0;collapsible=1;marginBottom=0;whiteSpace=wrap;html=1;" vertex="1" parent="1">
          <mxGeometry x="390" y="330" width="160" height="100" as="geometry" />
        </mxCell>
        <mxCell id="Hru7kzp4jPPOl90ZvP8H-15" value="-accountNo : long" style="text;strokeColor=none;fillColor=none;align=left;verticalAlign=top;spacingLeft=4;spacingRight=4;overflow=hidden;rotatable=0;points=[[0,0.5],[1,0.5]];portConstraint=eastwest;whiteSpace=wrap;html=1;" vertex="1" parent="Hru7kzp4jPPOl90ZvP8H-14">
          <mxGeometry y="26" width="160" height="26" as="geometry" />
        </mxCell>
        <mxCell id="Hru7kzp4jPPOl90ZvP8H-16" value="" style="line;strokeWidth=1;fillColor=none;align=left;verticalAlign=middle;spacingTop=-1;spacingLeft=3;spacingRight=3;rotatable=0;labelPosition=right;points=[];portConstraint=eastwest;strokeColor=inherit;" vertex="1" parent="Hru7kzp4jPPOl90ZvP8H-14">
          <mxGeometry y="52" width="160" height="8" as="geometry" />
        </mxCell>
        <mxCell id="Hru7kzp4jPPOl90ZvP8H-17" value="+getAccountNo() : long&lt;br&gt;+setAccountNo(long) : void" style="text;strokeColor=none;fillColor=none;align=left;verticalAlign=top;spacingLeft=4;spacingRight=4;overflow=hidden;rotatable=0;points=[[0,0.5],[1,0.5]];portConstraint=eastwest;whiteSpace=wrap;html=1;" vertex="1" parent="Hru7kzp4jPPOl90ZvP8H-14">
          <mxGeometry y="60" width="160" height="40" as="geometry" />
        </mxCell>
        <mxCell id="Hru7kzp4jPPOl90ZvP8H-18" value="Customer" style="swimlane;fontStyle=1;align=center;verticalAlign=top;childLayout=stackLayout;horizontal=1;startSize=26;horizontalStack=0;resizeParent=1;resizeParentMax=0;resizeLast=0;collapsible=1;marginBottom=0;whiteSpace=wrap;html=1;" vertex="1" parent="1">
          <mxGeometry x="95" y="580" width="190" height="130" as="geometry" />
        </mxCell>
        <mxCell id="Hru7kzp4jPPOl90ZvP8H-19" value="-customerName : string" style="text;strokeColor=none;fillColor=none;align=left;verticalAlign=top;spacingLeft=4;spacingRight=4;overflow=hidden;rotatable=0;points=[[0,0.5],[1,0.5]];portConstraint=eastwest;whiteSpace=wrap;html=1;" vertex="1" parent="Hru7kzp4jPPOl90ZvP8H-18">
          <mxGeometry y="26" width="190" height="26" as="geometry" />
        </mxCell>
        <mxCell id="Hru7kzp4jPPOl90ZvP8H-20" value="" style="line;strokeWidth=1;fillColor=none;align=left;verticalAlign=middle;spacingTop=-1;spacingLeft=3;spacingRight=3;rotatable=0;labelPosition=right;points=[];portConstraint=eastwest;strokeColor=inherit;" vertex="1" parent="Hru7kzp4jPPOl90ZvP8H-18">
          <mxGeometry y="52" width="190" height="8" as="geometry" />
        </mxCell>
        <mxCell id="Hru7kzp4jPPOl90ZvP8H-21" value="+getCustomerName() : string&lt;br&gt;+setCustomerName(string) : void" style="text;strokeColor=none;fillColor=none;align=left;verticalAlign=top;spacingLeft=4;spacingRight=4;overflow=hidden;rotatable=0;points=[[0,0.5],[1,0.5]];portConstraint=eastwest;whiteSpace=wrap;html=1;" vertex="1" parent="Hru7kzp4jPPOl90ZvP8H-18">
          <mxGeometry y="60" width="190" height="70" as="geometry" />
        </mxCell>
        <mxCell id="Hru7kzp4jPPOl90ZvP8H-22" value="SavingAccount" style="swimlane;fontStyle=1;align=center;verticalAlign=top;childLayout=stackLayout;horizontal=1;startSize=26;horizontalStack=0;resizeParent=1;resizeParentMax=0;resizeLast=0;collapsible=1;marginBottom=0;whiteSpace=wrap;html=1;" vertex="1" parent="1">
          <mxGeometry x="380" y="490" width="180" height="120" as="geometry" />
        </mxCell>
        <mxCell id="Hru7kzp4jPPOl90ZvP8H-23" value="-interestRate : float" style="text;strokeColor=none;fillColor=none;align=left;verticalAlign=top;spacingLeft=4;spacingRight=4;overflow=hidden;rotatable=0;points=[[0,0.5],[1,0.5]];portConstraint=eastwest;whiteSpace=wrap;html=1;" vertex="1" parent="Hru7kzp4jPPOl90ZvP8H-22">
          <mxGeometry y="26" width="180" height="26" as="geometry" />
        </mxCell>
        <mxCell id="Hru7kzp4jPPOl90ZvP8H-24" value="" style="line;strokeWidth=1;fillColor=none;align=left;verticalAlign=middle;spacingTop=-1;spacingLeft=3;spacingRight=3;rotatable=0;labelPosition=right;points=[];portConstraint=eastwest;strokeColor=inherit;" vertex="1" parent="Hru7kzp4jPPOl90ZvP8H-22">
          <mxGeometry y="52" width="180" height="8" as="geometry" />
        </mxCell>
        <mxCell id="Hru7kzp4jPPOl90ZvP8H-25" value="+getInterestRate() : float&lt;br&gt;+setInterestRate(float) : void&lt;br&gt;+checkBalance() : double" style="text;strokeColor=none;fillColor=none;align=left;verticalAlign=top;spacingLeft=4;spacingRight=4;overflow=hidden;rotatable=0;points=[[0,0.5],[1,0.5]];portConstraint=eastwest;whiteSpace=wrap;html=1;" vertex="1" parent="Hru7kzp4jPPOl90ZvP8H-22">
          <mxGeometry y="60" width="180" height="60" as="geometry" />
        </mxCell>
        <mxCell id="Hru7kzp4jPPOl90ZvP8H-26" value="CurrentAccount" style="swimlane;fontStyle=1;align=center;verticalAlign=top;childLayout=stackLayout;horizontal=1;startSize=26;horizontalStack=0;resizeParent=1;resizeParentMax=0;resizeLast=0;collapsible=1;marginBottom=0;whiteSpace=wrap;html=1;" vertex="1" parent="1">
          <mxGeometry x="570" y="490" width="180" height="120" as="geometry" />
        </mxCell>
        <mxCell id="Hru7kzp4jPPOl90ZvP8H-27" value="-interestRate : float" style="text;strokeColor=none;fillColor=none;align=left;verticalAlign=top;spacingLeft=4;spacingRight=4;overflow=hidden;rotatable=0;points=[[0,0.5],[1,0.5]];portConstraint=eastwest;whiteSpace=wrap;html=1;" vertex="1" parent="Hru7kzp4jPPOl90ZvP8H-26">
          <mxGeometry y="26" width="180" height="26" as="geometry" />
        </mxCell>
        <mxCell id="Hru7kzp4jPPOl90ZvP8H-28" value="" style="line;strokeWidth=1;fillColor=none;align=left;verticalAlign=middle;spacingTop=-1;spacingLeft=3;spacingRight=3;rotatable=0;labelPosition=right;points=[];portConstraint=eastwest;strokeColor=inherit;" vertex="1" parent="Hru7kzp4jPPOl90ZvP8H-26">
          <mxGeometry y="52" width="180" height="8" as="geometry" />
        </mxCell>
        <mxCell id="Hru7kzp4jPPOl90ZvP8H-29" value="+getInterestRate() : float&lt;br&gt;+setInterestRate(float) : void&lt;br&gt;+checkBalance() : double" style="text;strokeColor=none;fillColor=none;align=left;verticalAlign=top;spacingLeft=4;spacingRight=4;overflow=hidden;rotatable=0;points=[[0,0.5],[1,0.5]];portConstraint=eastwest;whiteSpace=wrap;html=1;" vertex="1" parent="Hru7kzp4jPPOl90ZvP8H-26">
          <mxGeometry y="60" width="180" height="60" as="geometry" />
        </mxCell>
        <mxCell id="Hru7kzp4jPPOl90ZvP8H-31" value="1" style="text;strokeColor=none;align=center;fillColor=none;html=1;verticalAlign=middle;whiteSpace=wrap;rounded=0;" vertex="1" parent="1">
          <mxGeometry x="280" y="160" width="60" height="30" as="geometry" />
        </mxCell>
        <mxCell id="Hru7kzp4jPPOl90ZvP8H-32" value="n" style="text;strokeColor=none;align=center;fillColor=none;html=1;verticalAlign=middle;whiteSpace=wrap;rounded=0;" vertex="1" parent="1">
          <mxGeometry x="320" y="160" width="60" height="30" as="geometry" />
        </mxCell>
        <mxCell id="Hru7kzp4jPPOl90ZvP8H-33" value="" style="endArrow=diamondThin;endFill=0;endSize=24;html=1;rounded=0;entryX=-0.019;entryY=0.227;entryDx=0;entryDy=0;entryPerimeter=0;" edge="1" parent="1" target="Hru7kzp4jPPOl90ZvP8H-9">
          <mxGeometry width="160" relative="1" as="geometry">
            <mxPoint x="310" y="373" as="sourcePoint" />
            <mxPoint x="450" y="372.5" as="targetPoint" />
            <Array as="points">
              <mxPoint x="320" y="373" />
              <mxPoint x="320" y="200" />
            </Array>
          </mxGeometry>
        </mxCell>
        <mxCell id="Hru7kzp4jPPOl90ZvP8H-34" value="" style="endArrow=diamondThin;endFill=0;endSize=24;html=1;rounded=0;entryX=1;entryY=0.5;entryDx=0;entryDy=0;" edge="1" parent="1" target="Hru7kzp4jPPOl90ZvP8H-9">
          <mxGeometry width="160" relative="1" as="geometry">
            <mxPoint x="550" y="372.5" as="sourcePoint" />
            <mxPoint x="550" y="240" as="targetPoint" />
            <Array as="points">
              <mxPoint x="600" y="373" />
              <mxPoint x="600" y="240" />
            </Array>
          </mxGeometry>
        </mxCell>
        <mxCell id="Hru7kzp4jPPOl90ZvP8H-35" value="1" style="text;strokeColor=none;align=center;fillColor=none;html=1;verticalAlign=middle;whiteSpace=wrap;rounded=0;" vertex="1" parent="1">
          <mxGeometry x="310" y="190" width="60" height="50" as="geometry" />
        </mxCell>
        <mxCell id="Hru7kzp4jPPOl90ZvP8H-36" value="n" style="text;strokeColor=none;align=center;fillColor=none;html=1;verticalAlign=middle;whiteSpace=wrap;rounded=0;" vertex="1" parent="1">
          <mxGeometry x="270" y="340" width="80" height="50" as="geometry" />
        </mxCell>
        <mxCell id="Hru7kzp4jPPOl90ZvP8H-37" value="1" style="text;strokeColor=none;align=center;fillColor=none;html=1;verticalAlign=middle;whiteSpace=wrap;rounded=0;" vertex="1" parent="1">
          <mxGeometry x="550" y="220" width="60" height="30" as="geometry" />
        </mxCell>
        <mxCell id="Hru7kzp4jPPOl90ZvP8H-38" value="n" style="text;strokeColor=none;align=center;fillColor=none;html=1;verticalAlign=middle;whiteSpace=wrap;rounded=0;" vertex="1" parent="1">
          <mxGeometry x="540" y="350" width="60" height="30" as="geometry" />
        </mxCell>
        <mxCell id="Hru7kzp4jPPOl90ZvP8H-41" value="Extends" style="endArrow=block;endSize=16;endFill=0;html=1;rounded=0;exitX=0.213;exitY=-0.047;exitDx=0;exitDy=0;exitPerimeter=0;entryX=0.513;entryY=1.1;entryDx=0;entryDy=0;entryPerimeter=0;" edge="1" parent="1" source="Hru7kzp4jPPOl90ZvP8H-22" target="Hru7kzp4jPPOl90ZvP8H-17">
          <mxGeometry width="160" relative="1" as="geometry">
            <mxPoint x="460" y="460" as="sourcePoint" />
            <mxPoint x="620" y="460" as="targetPoint" />
          </mxGeometry>
        </mxCell>
        <mxCell id="Hru7kzp4jPPOl90ZvP8H-42" value="Extends" style="endArrow=block;endSize=16;endFill=0;html=1;rounded=0;" edge="1" parent="1">
          <mxGeometry width="160" relative="1" as="geometry">
            <mxPoint x="600" y="485" as="sourcePoint" />
            <mxPoint x="530" y="440" as="targetPoint" />
          </mxGeometry>
        </mxCell>
        <mxCell id="Hru7kzp4jPPOl90ZvP8H-43" value="" style="endArrow=diamondThin;endFill=0;endSize=24;html=1;rounded=0;exitX=0.322;exitY=1.016;exitDx=0;exitDy=0;exitPerimeter=0;entryX=0.463;entryY=0.012;entryDx=0;entryDy=0;entryPerimeter=0;" edge="1" parent="1" source="Hru7kzp4jPPOl90ZvP8H-13" target="Hru7kzp4jPPOl90ZvP8H-18">
          <mxGeometry width="160" relative="1" as="geometry">
            <mxPoint x="150" y="550" as="sourcePoint" />
            <mxPoint x="310" y="550" as="targetPoint" />
          </mxGeometry>
        </mxCell>
        <mxCell id="Hru7kzp4jPPOl90ZvP8H-44" value="1" style="text;strokeColor=none;align=center;fillColor=none;html=1;verticalAlign=middle;whiteSpace=wrap;rounded=0;" vertex="1" parent="1">
          <mxGeometry x="165" y="550" width="60" height="30" as="geometry" />
        </mxCell>
        <mxCell id="Hru7kzp4jPPOl90ZvP8H-45" value="n" style="text;strokeColor=none;align=center;fillColor=none;html=1;verticalAlign=middle;whiteSpace=wrap;rounded=0;" vertex="1" parent="1">
          <mxGeometry x="165" y="508" width="60" height="30" as="geometry" />
        </mxCell>
        <mxCell id="Hru7kzp4jPPOl90ZvP8H-46" value="" style="endArrow=diamondThin;endFill=0;endSize=24;html=1;rounded=0;exitX=-0.006;exitY=0.923;exitDx=0;exitDy=0;exitPerimeter=0;" edge="1" parent="1" source="Hru7kzp4jPPOl90ZvP8H-23">
          <mxGeometry width="160" relative="1" as="geometry">
            <mxPoint x="285" y="549" as="sourcePoint" />
            <mxPoint x="270" y="580" as="targetPoint" />
            <Array as="points">
              <mxPoint x="270" y="540" />
            </Array>
          </mxGeometry>
        </mxCell>
        <mxCell id="Hru7kzp4jPPOl90ZvP8H-48" value="1" style="text;strokeColor=none;align=center;fillColor=none;html=1;verticalAlign=middle;whiteSpace=wrap;rounded=0;" vertex="1" parent="1">
          <mxGeometry x="225" y="550" width="60" height="30" as="geometry" />
        </mxCell>
        <mxCell id="Hru7kzp4jPPOl90ZvP8H-50" value="n" style="text;strokeColor=none;align=center;fillColor=none;html=1;verticalAlign=middle;whiteSpace=wrap;rounded=0;" vertex="1" parent="1">
          <mxGeometry x="320" y="510" width="100" height="40" as="geometry" />
        </mxCell>
        <mxCell id="Hru7kzp4jPPOl90ZvP8H-51" value="" style="endArrow=diamondThin;endFill=0;endSize=24;html=1;rounded=0;entryX=1.031;entryY=-0.154;entryDx=0;entryDy=0;entryPerimeter=0;exitX=0.389;exitY=1.167;exitDx=0;exitDy=0;exitPerimeter=0;" edge="1" parent="1" source="Hru7kzp4jPPOl90ZvP8H-29">
          <mxGeometry width="160" relative="1" as="geometry">
            <mxPoint x="675.04" y="636" as="sourcePoint" />
            <mxPoint x="285.00000000000006" y="635.9960000000001" as="targetPoint" />
            <Array as="points">
              <mxPoint x="640" y="636" />
            </Array>
          </mxGeometry>
        </mxCell>
        <mxCell id="Hru7kzp4jPPOl90ZvP8H-53" value="1" style="text;strokeColor=none;align=center;fillColor=none;html=1;verticalAlign=middle;whiteSpace=wrap;rounded=0;" vertex="1" parent="1">
          <mxGeometry x="280" y="636" width="60" height="30" as="geometry" />
        </mxCell>
        <mxCell id="Hru7kzp4jPPOl90ZvP8H-54" value="1" style="text;strokeColor=none;align=center;fillColor=none;html=1;verticalAlign=middle;whiteSpace=wrap;rounded=0;" vertex="1" parent="1">
          <mxGeometry x="620" y="610" width="60" height="30" as="geometry" />
        </mxCell>
        <mxCell id="Hru7kzp4jPPOl90ZvP8H-58" value="" style="endArrow=diamondThin;endFill=1;endSize=24;html=1;rounded=0;" edge="1" parent="1">
          <mxGeometry width="160" relative="1" as="geometry">
            <mxPoint x="290" y="680" as="sourcePoint" />
            <mxPoint x="540" y="160" as="targetPoint" />
            <Array as="points">
              <mxPoint x="800" y="680" />
              <mxPoint x="800" y="160" />
            </Array>
          </mxGeometry>
        </mxCell>
        <mxCell id="Hru7kzp4jPPOl90ZvP8H-59" value="n" style="text;strokeColor=none;align=center;fillColor=none;html=1;verticalAlign=middle;whiteSpace=wrap;rounded=0;" vertex="1" parent="1">
          <mxGeometry x="260" y="650" width="80" height="40" as="geometry" />
        </mxCell>
        <mxCell id="Hru7kzp4jPPOl90ZvP8H-60" value="1" style="text;strokeColor=none;align=center;fillColor=none;html=1;verticalAlign=middle;whiteSpace=wrap;rounded=0;" vertex="1" parent="1">
          <mxGeometry x="520" y="110" width="100" height="80" as="geometry" />
        </mxCell>
      </root>
    </mxGraphModel>
  </diagram>
</mxfile>
